# xmcd CD database file generated by OrangeCD 5.0
#
# Track frame offsets:
#	150
#	25727
#	49385
#	85815
#	96120
#	117062
#	138595
#	159472
#	177895
#	198422
#	222690
#	232142
#	257272
#
# Disc length: 3773 seconds
#
# Revision: 0
# Processed by: cddbd v1.4PL0 Copyright (c) Steve Scherf et al.
# Submitted via: OrangeCD 5.0
#
DISCID=b30ebb0d
DTITLE=Neil Young - Times Square
DYEAR=1995
DGENRE=Blues
TTITLE0=Eldorado
TTITLE1=Someday
TTITLE2=Crime In The City
TTITLE3=Box Car
TTITLE4=Don't Cry
TTITLE5=Heavy Love
TTITLE6=Wrecking Ball
TTITLE7=Cocaine Eyes
TTITLE8=On Broadway
TTITLE9=Rockin' In The Free World
TTITLE10=The Needle And The Damage Done
TTITLE11=No More #1
TTITLE12=No More #2
EXTD=Tracks 1-9 Recorded at the Hit Factory, NYC, 1988\nTracks 10-12 "Saterday 
EXTD=Night Live", Sept. 30, 1989\nTrack 13 "Saturday Night Live", Sept 30, Rehe
EXTD=arsal\n
EXTT0=
EXTT1=
EXTT2=
EXTT3=
EXTT4=
EXTT5=
EXTT6=
EXTT7=
EXTT8=
EXTT9=
EXTT10=
EXTT11=
EXTT12=
PLAYORDER=
